<svg preserveAspectRatio="xMidYMid meet" data-bbox="25.138 20.117 149.724 159.766" viewBox="25.138 20.117 149.724 159.766" height="200" width="200" xmlns="http://www.w3.org/2000/svg" data-type="shape" role="presentation" aria-hidden="true" aria-label="">
    <g>
        <path d="M108.547 99.847l63.783-63.783c3.373-3.373 3.373-8.586 0-11.653l-1.84-1.84c-1.534-1.534-3.68-2.453-5.827-2.453-2.146 0-4.293.92-5.827 2.453L87.082 94.02c-1.84 1.534-2.453 3.68-2.453 5.827s.92 4.293 2.453 5.827l71.756 71.756c1.534 1.534 3.68 2.453 5.827 2.453 2.146 0 4.293-.92 5.827-2.453l1.84-1.84c3.373-3.373 3.373-8.586 0-11.653l-63.785-64.09z" fill="currentColor"></path>
        <path d="M49.057 99.847l63.783-63.783c3.373-3.373 3.373-8.586 0-11.653L111 22.57c-1.534-1.534-3.68-2.453-5.827-2.453-2.146 0-4.293.92-5.827 2.453L27.591 94.02c-1.534 1.534-2.453 3.68-2.453 5.827s.92 4.293 2.453 5.827l71.756 71.756c1.534 1.534 3.68 2.453 5.827 2.453s4.293-.92 5.827-2.453l1.84-1.84c3.373-3.373 3.373-8.586 0-11.653l-63.784-64.09z" fill="currentColor"></path>
    </g>
</svg>