<svg preserveAspectRatio="xMidYMid meet" data-bbox="30.5 30.499 139 139.001" viewBox="30.5 30.499 139 139.001" height="200" width="200" xmlns="http://www.w3.org/2000/svg" data-type="color" role="presentation" aria-hidden="true" aria-label=""><defs><style>#comp-m71ttb0413 svg [data-color="1"] {fill: #C2C2C2;}</style></defs>
  <g>
    <path d="M34.472 169.5a3.973 3.973 0 0 1-3.832-5.017l9.915-36.356a3.976 3.976 0 0 1 1.024-1.763l89.236-89.237v-.001c8.838-8.836 23.22-8.836 32.057 0 8.838 8.839 8.838 23.22.001 32.058l-89.237 89.237a3.976 3.976 0 0 1-1.763 1.024l-36.356 9.915c-.345.094-.697.14-1.045.14zm13.468-38.265l-7.808 28.632 28.632-7.808 88.491-88.491c5.74-5.741 5.74-15.083 0-20.825-5.741-5.74-15.083-5.74-20.824 0L47.94 131.235z" fill="currentColor" data-color="1"></path>
  </g>
</svg>